# xmcd CD database file
#
# Track frame offsets:
#	150
#	39667
#	74919
#	102245
#	122717
#	149864
#	179059
#	207006
#	230853
#	263779
#
# Disc length: 4200 seconds
#
# Revision: 0
# Processed by: cddbd v1.5.1PL0 Copyright (c) Steve Scherf et al.
# Submitted via: CDex 1.51
#
DISCID=a810660a
DTITLE=Motown67 - Mao Is My Muse
DYEAR=2005
DGENRE=Jazz
TTITLE0=Kenny Barron - Spirits
TTITLE1=Walter Bishop Jr. - Summertime
TTITLE2=Catalyst - A Country Song
TTITLE3=Neal Creque - In The Middle Of It All
TTITLE4=Richard Davis - Dealin
TTITLE5=Joao Donato and Eumir Deodato - Nightripper
TTITLE6=Carlos Garnett - Let Us Go (To Higher Heights)
TTITLE7=Willis Jackson - Headed and Gutted
TTITLE8=Bu Pleasant - Opus For O.P
TTITLE9=Buster Williams - The Hump
EXTD=YEAR: 2005
EXTT0=
EXTT1=
EXTT2=
EXTT3=
EXTT4=
EXTT5=
EXTT6=
EXTT7=
EXTT8=
EXTT9=
PLAYORDER=
